<?xml version="1.0" encoding="utf-8" standalone="no"?>
<!DOCTYPE svg PUBLIC "-//W3C//DTD SVG 1.1//EN"
  "http://www.w3.org/Graphics/SVG/1.1/DTD/svg11.dtd">
<svg height="345.6pt" version="1.1" viewBox="0 0 460.8 345.6" width="460.8pt" xmlns="http://www.w3.org/2000/svg" xmlns:xlink="http://www.w3.org/1999/xlink">
 <metadata>
  <rdf:RDF xmlns:cc="http://creativecommons.org/ns#" xmlns:dc="http://purl.org/dc/elements/1.1/" xmlns:rdf="http://www.w3.org/1999/02/22-rdf-syntax-ns#">
   <cc:Work>
    <dc:type rdf:resource="http://purl.org/dc/dcmitype/StillImage"/>
    <dc:date>2021-10-21T12:12:08.303644</dc:date>
    <dc:format>image/svg+xml</dc:format>
    <dc:creator>
     <cc:Agent>
      <dc:title>Matplotlib v3.4.3, https://matplotlib.org/</dc:title>
     </cc:Agent>
    </dc:creator>
   </cc:Work>
  </rdf:RDF>
 </metadata>
 <defs>
  <style type="text/css">*{stroke-linecap:butt;stroke-linejoin:round;}</style>
 </defs>
 <g id="figure_1">
  <g id="patch_1">
   <path d="M 0 345.6 
L 460.8 345.6 
L 460.8 0 
L 0 0 
z
" style="fill:#ffffff;"/>
  </g>
  <g id="axes_1">
   <g id="patch_2">
    <path d="M 57.6 307.584 
L 414.72 307.584 
L 414.72 41.472 
L 57.6 41.472 
z
" style="fill:#ffffff;"/>
   </g>
   <g id="matplotlib.axis_1">
    <g id="xtick_1">
     <g id="line2d_1">
      <defs>
       <path d="M 0 0 
L 0 3.5 
" id="m694c1ff799" style="stroke:#000000;stroke-width:0.8;"/>
      </defs>
      <g>
       <use style="stroke:#000000;stroke-width:0.8;" x="73.832727" xlink:href="#m694c1ff799" y="307.584"/>
      </g>
     </g>
     <g id="text_1">
      <!-- 0 -->
      <g transform="translate(70.651477 322.182437)scale(0.1 -0.1)">
       <defs>
        <path d="M 2034 4250 
Q 1547 4250 1301 3770 
Q 1056 3291 1056 2328 
Q 1056 1369 1301 889 
Q 1547 409 2034 409 
Q 2525 409 2770 889 
Q 3016 1369 3016 2328 
Q 3016 3291 2770 3770 
Q 2525 4250 2034 4250 
z
M 2034 4750 
Q 2819 4750 3233 4129 
Q 3647 3509 3647 2328 
Q 3647 1150 3233 529 
Q 2819 -91 2034 -91 
Q 1250 -91 836 529 
Q 422 1150 422 2328 
Q 422 3509 836 4129 
Q 1250 4750 2034 4750 
z
" id="DejaVuSans-30" transform="scale(0.015625)"/>
       </defs>
       <use xlink:href="#DejaVuSans-30"/>
      </g>
     </g>
    </g>
    <g id="xtick_2">
     <g id="line2d_2">
      <g>
       <use style="stroke:#000000;stroke-width:0.8;" x="125.365195" xlink:href="#m694c1ff799" y="307.584"/>
      </g>
     </g>
     <g id="text_2">
      <!-- 10 -->
      <g transform="translate(119.002695 322.182437)scale(0.1 -0.1)">
       <defs>
        <path d="M 794 531 
L 1825 531 
L 1825 4091 
L 703 3866 
L 703 4441 
L 1819 4666 
L 2450 4666 
L 2450 531 
L 3481 531 
L 3481 0 
L 794 0 
L 794 531 
z
" id="DejaVuSans-31" transform="scale(0.015625)"/>
       </defs>
       <use xlink:href="#DejaVuSans-31"/>
       <use x="63.623047" xlink:href="#DejaVuSans-30"/>
      </g>
     </g>
    </g>
    <g id="xtick_3">
     <g id="line2d_3">
      <g>
       <use style="stroke:#000000;stroke-width:0.8;" x="176.897662" xlink:href="#m694c1ff799" y="307.584"/>
      </g>
     </g>
     <g id="text_3">
      <!-- 20 -->
      <g transform="translate(170.535162 322.182437)scale(0.1 -0.1)">
       <defs>
        <path d="M 1228 531 
L 3431 531 
L 3431 0 
L 469 0 
L 469 531 
Q 828 903 1448 1529 
Q 2069 2156 2228 2338 
Q 2531 2678 2651 2914 
Q 2772 3150 2772 3378 
Q 2772 3750 2511 3984 
Q 2250 4219 1831 4219 
Q 1534 4219 1204 4116 
Q 875 4013 500 3803 
L 500 4441 
Q 881 4594 1212 4672 
Q 1544 4750 1819 4750 
Q 2544 4750 2975 4387 
Q 3406 4025 3406 3419 
Q 3406 3131 3298 2873 
Q 3191 2616 2906 2266 
Q 2828 2175 2409 1742 
Q 1991 1309 1228 531 
z
" id="DejaVuSans-32" transform="scale(0.015625)"/>
       </defs>
       <use xlink:href="#DejaVuSans-32"/>
       <use x="63.623047" xlink:href="#DejaVuSans-30"/>
      </g>
     </g>
    </g>
    <g id="xtick_4">
     <g id="line2d_4">
      <g>
       <use style="stroke:#000000;stroke-width:0.8;" x="228.43013" xlink:href="#m694c1ff799" y="307.584"/>
      </g>
     </g>
     <g id="text_4">
      <!-- 30 -->
      <g transform="translate(222.06763 322.182437)scale(0.1 -0.1)">
       <defs>
        <path d="M 2597 2516 
Q 3050 2419 3304 2112 
Q 3559 1806 3559 1356 
Q 3559 666 3084 287 
Q 2609 -91 1734 -91 
Q 1441 -91 1130 -33 
Q 819 25 488 141 
L 488 750 
Q 750 597 1062 519 
Q 1375 441 1716 441 
Q 2309 441 2620 675 
Q 2931 909 2931 1356 
Q 2931 1769 2642 2001 
Q 2353 2234 1838 2234 
L 1294 2234 
L 1294 2753 
L 1863 2753 
Q 2328 2753 2575 2939 
Q 2822 3125 2822 3475 
Q 2822 3834 2567 4026 
Q 2313 4219 1838 4219 
Q 1578 4219 1281 4162 
Q 984 4106 628 3988 
L 628 4550 
Q 988 4650 1302 4700 
Q 1616 4750 1894 4750 
Q 2613 4750 3031 4423 
Q 3450 4097 3450 3541 
Q 3450 3153 3228 2886 
Q 3006 2619 2597 2516 
z
" id="DejaVuSans-33" transform="scale(0.015625)"/>
       </defs>
       <use xlink:href="#DejaVuSans-33"/>
       <use x="63.623047" xlink:href="#DejaVuSans-30"/>
      </g>
     </g>
    </g>
    <g id="xtick_5">
     <g id="line2d_5">
      <g>
       <use style="stroke:#000000;stroke-width:0.8;" x="279.962597" xlink:href="#m694c1ff799" y="307.584"/>
      </g>
     </g>
     <g id="text_5">
      <!-- 40 -->
      <g transform="translate(273.600097 322.182437)scale(0.1 -0.1)">
       <defs>
        <path d="M 2419 4116 
L 825 1625 
L 2419 1625 
L 2419 4116 
z
M 2253 4666 
L 3047 4666 
L 3047 1625 
L 3713 1625 
L 3713 1100 
L 3047 1100 
L 3047 0 
L 2419 0 
L 2419 1100 
L 313 1100 
L 313 1709 
L 2253 4666 
z
" id="DejaVuSans-34" transform="scale(0.015625)"/>
       </defs>
       <use xlink:href="#DejaVuSans-34"/>
       <use x="63.623047" xlink:href="#DejaVuSans-30"/>
      </g>
     </g>
    </g>
    <g id="xtick_6">
     <g id="line2d_6">
      <g>
       <use style="stroke:#000000;stroke-width:0.8;" x="331.495065" xlink:href="#m694c1ff799" y="307.584"/>
      </g>
     </g>
     <g id="text_6">
      <!-- 50 -->
      <g transform="translate(325.132565 322.182437)scale(0.1 -0.1)">
       <defs>
        <path d="M 691 4666 
L 3169 4666 
L 3169 4134 
L 1269 4134 
L 1269 2991 
Q 1406 3038 1543 3061 
Q 1681 3084 1819 3084 
Q 2600 3084 3056 2656 
Q 3513 2228 3513 1497 
Q 3513 744 3044 326 
Q 2575 -91 1722 -91 
Q 1428 -91 1123 -41 
Q 819 9 494 109 
L 494 744 
Q 775 591 1075 516 
Q 1375 441 1709 441 
Q 2250 441 2565 725 
Q 2881 1009 2881 1497 
Q 2881 1984 2565 2268 
Q 2250 2553 1709 2553 
Q 1456 2553 1204 2497 
Q 953 2441 691 2322 
L 691 4666 
z
" id="DejaVuSans-35" transform="scale(0.015625)"/>
       </defs>
       <use xlink:href="#DejaVuSans-35"/>
       <use x="63.623047" xlink:href="#DejaVuSans-30"/>
      </g>
     </g>
    </g>
    <g id="xtick_7">
     <g id="line2d_7">
      <g>
       <use style="stroke:#000000;stroke-width:0.8;" x="383.027532" xlink:href="#m694c1ff799" y="307.584"/>
      </g>
     </g>
     <g id="text_7">
      <!-- 60 -->
      <g transform="translate(376.665032 322.182437)scale(0.1 -0.1)">
       <defs>
        <path d="M 2113 2584 
Q 1688 2584 1439 2293 
Q 1191 2003 1191 1497 
Q 1191 994 1439 701 
Q 1688 409 2113 409 
Q 2538 409 2786 701 
Q 3034 994 3034 1497 
Q 3034 2003 2786 2293 
Q 2538 2584 2113 2584 
z
M 3366 4563 
L 3366 3988 
Q 3128 4100 2886 4159 
Q 2644 4219 2406 4219 
Q 1781 4219 1451 3797 
Q 1122 3375 1075 2522 
Q 1259 2794 1537 2939 
Q 1816 3084 2150 3084 
Q 2853 3084 3261 2657 
Q 3669 2231 3669 1497 
Q 3669 778 3244 343 
Q 2819 -91 2113 -91 
Q 1303 -91 875 529 
Q 447 1150 447 2328 
Q 447 3434 972 4092 
Q 1497 4750 2381 4750 
Q 2619 4750 2861 4703 
Q 3103 4656 3366 4563 
z
" id="DejaVuSans-36" transform="scale(0.015625)"/>
       </defs>
       <use xlink:href="#DejaVuSans-36"/>
       <use x="63.623047" xlink:href="#DejaVuSans-30"/>
      </g>
     </g>
    </g>
    <g id="text_8">
     <!-- Time -->
     <g transform="translate(223.926406 335.860562)scale(0.1 -0.1)">
      <defs>
       <path d="M -19 4666 
L 3928 4666 
L 3928 4134 
L 2272 4134 
L 2272 0 
L 1638 0 
L 1638 4134 
L -19 4134 
L -19 4666 
z
" id="DejaVuSans-54" transform="scale(0.015625)"/>
       <path d="M 603 3500 
L 1178 3500 
L 1178 0 
L 603 0 
L 603 3500 
z
M 603 4863 
L 1178 4863 
L 1178 4134 
L 603 4134 
L 603 4863 
z
" id="DejaVuSans-69" transform="scale(0.015625)"/>
       <path d="M 3328 2828 
Q 3544 3216 3844 3400 
Q 4144 3584 4550 3584 
Q 5097 3584 5394 3201 
Q 5691 2819 5691 2113 
L 5691 0 
L 5113 0 
L 5113 2094 
Q 5113 2597 4934 2840 
Q 4756 3084 4391 3084 
Q 3944 3084 3684 2787 
Q 3425 2491 3425 1978 
L 3425 0 
L 2847 0 
L 2847 2094 
Q 2847 2600 2669 2842 
Q 2491 3084 2119 3084 
Q 1678 3084 1418 2786 
Q 1159 2488 1159 1978 
L 1159 0 
L 581 0 
L 581 3500 
L 1159 3500 
L 1159 2956 
Q 1356 3278 1631 3431 
Q 1906 3584 2284 3584 
Q 2666 3584 2933 3390 
Q 3200 3197 3328 2828 
z
" id="DejaVuSans-6d" transform="scale(0.015625)"/>
       <path d="M 3597 1894 
L 3597 1613 
L 953 1613 
Q 991 1019 1311 708 
Q 1631 397 2203 397 
Q 2534 397 2845 478 
Q 3156 559 3463 722 
L 3463 178 
Q 3153 47 2828 -22 
Q 2503 -91 2169 -91 
Q 1331 -91 842 396 
Q 353 884 353 1716 
Q 353 2575 817 3079 
Q 1281 3584 2069 3584 
Q 2775 3584 3186 3129 
Q 3597 2675 3597 1894 
z
M 3022 2063 
Q 3016 2534 2758 2815 
Q 2500 3097 2075 3097 
Q 1594 3097 1305 2825 
Q 1016 2553 972 2059 
L 3022 2063 
z
" id="DejaVuSans-65" transform="scale(0.015625)"/>
      </defs>
      <use xlink:href="#DejaVuSans-54"/>
      <use x="57.958984" xlink:href="#DejaVuSans-69"/>
      <use x="85.742188" xlink:href="#DejaVuSans-6d"/>
      <use x="183.154297" xlink:href="#DejaVuSans-65"/>
     </g>
    </g>
   </g>
   <g id="matplotlib.axis_2">
    <g id="ytick_1">
     <g id="line2d_8">
      <defs>
       <path d="M 0 0 
L -3.5 0 
" id="m09d587438f" style="stroke:#000000;stroke-width:0.8;"/>
      </defs>
      <g>
       <use style="stroke:#000000;stroke-width:0.8;" x="57.6" xlink:href="#m09d587438f" y="297.311518"/>
      </g>
     </g>
     <g id="text_9">
      <!-- 0 -->
      <g transform="translate(44.2375 301.110736)scale(0.1 -0.1)">
       <use xlink:href="#DejaVuSans-30"/>
      </g>
     </g>
    </g>
    <g id="ytick_2">
     <g id="line2d_9">
      <g>
       <use style="stroke:#000000;stroke-width:0.8;" x="57.6" xlink:href="#m09d587438f" y="266.919558"/>
      </g>
     </g>
     <g id="text_10">
      <!-- 50 -->
      <g transform="translate(37.875 270.718777)scale(0.1 -0.1)">
       <use xlink:href="#DejaVuSans-35"/>
       <use x="63.623047" xlink:href="#DejaVuSans-30"/>
      </g>
     </g>
    </g>
    <g id="ytick_3">
     <g id="line2d_10">
      <g>
       <use style="stroke:#000000;stroke-width:0.8;" x="57.6" xlink:href="#m09d587438f" y="236.527598"/>
      </g>
     </g>
     <g id="text_11">
      <!-- 100 -->
      <g transform="translate(31.5125 240.326817)scale(0.1 -0.1)">
       <use xlink:href="#DejaVuSans-31"/>
       <use x="63.623047" xlink:href="#DejaVuSans-30"/>
       <use x="127.246094" xlink:href="#DejaVuSans-30"/>
      </g>
     </g>
    </g>
    <g id="ytick_4">
     <g id="line2d_11">
      <g>
       <use style="stroke:#000000;stroke-width:0.8;" x="57.6" xlink:href="#m09d587438f" y="206.135638"/>
      </g>
     </g>
     <g id="text_12">
      <!-- 150 -->
      <g transform="translate(31.5125 209.934857)scale(0.1 -0.1)">
       <use xlink:href="#DejaVuSans-31"/>
       <use x="63.623047" xlink:href="#DejaVuSans-35"/>
       <use x="127.246094" xlink:href="#DejaVuSans-30"/>
      </g>
     </g>
    </g>
    <g id="ytick_5">
     <g id="line2d_12">
      <g>
       <use style="stroke:#000000;stroke-width:0.8;" x="57.6" xlink:href="#m09d587438f" y="175.743678"/>
      </g>
     </g>
     <g id="text_13">
      <!-- 200 -->
      <g transform="translate(31.5125 179.542897)scale(0.1 -0.1)">
       <use xlink:href="#DejaVuSans-32"/>
       <use x="63.623047" xlink:href="#DejaVuSans-30"/>
       <use x="127.246094" xlink:href="#DejaVuSans-30"/>
      </g>
     </g>
    </g>
    <g id="ytick_6">
     <g id="line2d_13">
      <g>
       <use style="stroke:#000000;stroke-width:0.8;" x="57.6" xlink:href="#m09d587438f" y="145.351719"/>
      </g>
     </g>
     <g id="text_14">
      <!-- 250 -->
      <g transform="translate(31.5125 149.150937)scale(0.1 -0.1)">
       <use xlink:href="#DejaVuSans-32"/>
       <use x="63.623047" xlink:href="#DejaVuSans-35"/>
       <use x="127.246094" xlink:href="#DejaVuSans-30"/>
      </g>
     </g>
    </g>
    <g id="ytick_7">
     <g id="line2d_14">
      <g>
       <use style="stroke:#000000;stroke-width:0.8;" x="57.6" xlink:href="#m09d587438f" y="114.959759"/>
      </g>
     </g>
     <g id="text_15">
      <!-- 300 -->
      <g transform="translate(31.5125 118.758978)scale(0.1 -0.1)">
       <use xlink:href="#DejaVuSans-33"/>
       <use x="63.623047" xlink:href="#DejaVuSans-30"/>
       <use x="127.246094" xlink:href="#DejaVuSans-30"/>
      </g>
     </g>
    </g>
    <g id="ytick_8">
     <g id="line2d_15">
      <g>
       <use style="stroke:#000000;stroke-width:0.8;" x="57.6" xlink:href="#m09d587438f" y="84.567799"/>
      </g>
     </g>
     <g id="text_16">
      <!-- 350 -->
      <g transform="translate(31.5125 88.367018)scale(0.1 -0.1)">
       <use xlink:href="#DejaVuSans-33"/>
       <use x="63.623047" xlink:href="#DejaVuSans-35"/>
       <use x="127.246094" xlink:href="#DejaVuSans-30"/>
      </g>
     </g>
    </g>
    <g id="ytick_9">
     <g id="line2d_16">
      <g>
       <use style="stroke:#000000;stroke-width:0.8;" x="57.6" xlink:href="#m09d587438f" y="54.175839"/>
      </g>
     </g>
     <g id="text_17">
      <!-- 400 -->
      <g transform="translate(31.5125 57.975058)scale(0.1 -0.1)">
       <use xlink:href="#DejaVuSans-34"/>
       <use x="63.623047" xlink:href="#DejaVuSans-30"/>
       <use x="127.246094" xlink:href="#DejaVuSans-30"/>
      </g>
     </g>
    </g>
    <g id="text_18">
     <!-- Intensity -->
     <g transform="translate(25.432812 196.2905)rotate(-90)scale(0.1 -0.1)">
      <defs>
       <path d="M 628 4666 
L 1259 4666 
L 1259 0 
L 628 0 
L 628 4666 
z
" id="DejaVuSans-49" transform="scale(0.015625)"/>
       <path d="M 3513 2113 
L 3513 0 
L 2938 0 
L 2938 2094 
Q 2938 2591 2744 2837 
Q 2550 3084 2163 3084 
Q 1697 3084 1428 2787 
Q 1159 2491 1159 1978 
L 1159 0 
L 581 0 
L 581 3500 
L 1159 3500 
L 1159 2956 
Q 1366 3272 1645 3428 
Q 1925 3584 2291 3584 
Q 2894 3584 3203 3211 
Q 3513 2838 3513 2113 
z
" id="DejaVuSans-6e" transform="scale(0.015625)"/>
       <path d="M 1172 4494 
L 1172 3500 
L 2356 3500 
L 2356 3053 
L 1172 3053 
L 1172 1153 
Q 1172 725 1289 603 
Q 1406 481 1766 481 
L 2356 481 
L 2356 0 
L 1766 0 
Q 1100 0 847 248 
Q 594 497 594 1153 
L 594 3053 
L 172 3053 
L 172 3500 
L 594 3500 
L 594 4494 
L 1172 4494 
z
" id="DejaVuSans-74" transform="scale(0.015625)"/>
       <path d="M 2834 3397 
L 2834 2853 
Q 2591 2978 2328 3040 
Q 2066 3103 1784 3103 
Q 1356 3103 1142 2972 
Q 928 2841 928 2578 
Q 928 2378 1081 2264 
Q 1234 2150 1697 2047 
L 1894 2003 
Q 2506 1872 2764 1633 
Q 3022 1394 3022 966 
Q 3022 478 2636 193 
Q 2250 -91 1575 -91 
Q 1294 -91 989 -36 
Q 684 19 347 128 
L 347 722 
Q 666 556 975 473 
Q 1284 391 1588 391 
Q 1994 391 2212 530 
Q 2431 669 2431 922 
Q 2431 1156 2273 1281 
Q 2116 1406 1581 1522 
L 1381 1569 
Q 847 1681 609 1914 
Q 372 2147 372 2553 
Q 372 3047 722 3315 
Q 1072 3584 1716 3584 
Q 2034 3584 2315 3537 
Q 2597 3491 2834 3397 
z
" id="DejaVuSans-73" transform="scale(0.015625)"/>
       <path d="M 2059 -325 
Q 1816 -950 1584 -1140 
Q 1353 -1331 966 -1331 
L 506 -1331 
L 506 -850 
L 844 -850 
Q 1081 -850 1212 -737 
Q 1344 -625 1503 -206 
L 1606 56 
L 191 3500 
L 800 3500 
L 1894 763 
L 2988 3500 
L 3597 3500 
L 2059 -325 
z
" id="DejaVuSans-79" transform="scale(0.015625)"/>
      </defs>
      <use xlink:href="#DejaVuSans-49"/>
      <use x="29.492188" xlink:href="#DejaVuSans-6e"/>
      <use x="92.871094" xlink:href="#DejaVuSans-74"/>
      <use x="132.080078" xlink:href="#DejaVuSans-65"/>
      <use x="193.603516" xlink:href="#DejaVuSans-6e"/>
      <use x="256.982422" xlink:href="#DejaVuSans-73"/>
      <use x="309.082031" xlink:href="#DejaVuSans-69"/>
      <use x="336.865234" xlink:href="#DejaVuSans-74"/>
      <use x="376.074219" xlink:href="#DejaVuSans-79"/>
     </g>
    </g>
   </g>
   <g id="line2d_17">
    <path clip-path="url(#p9b6e43fc69)" d="M 73.832727 286.370412 
L 78.985974 290.017447 
L 84.139221 290.017447 
L 89.292468 291.840965 
L 94.445714 294.272322 
L 99.598961 295.488 
L 104.752208 285.762573 
L 109.905455 289.409608 
L 115.058701 290.625286 
L 120.211948 291.233126 
L 125.365195 292.448804 
L 130.518442 295.488 
L 135.671688 285.762573 
L 140.824935 289.409608 
L 145.978182 290.625286 
L 151.131429 291.233126 
L 156.284675 292.448804 
L 161.437922 295.488 
L 166.591169 294.272322 
L 171.744416 286.370412 
L 176.897662 290.017447 
L 182.050909 290.017447 
L 187.204156 291.840965 
L 192.357403 294.272322 
L 197.510649 295.488 
L 202.663896 285.762573 
L 207.817143 289.409608 
L 212.97039 290.625286 
L 218.123636 291.233126 
L 223.276883 292.448804 
L 228.43013 295.488 
L 233.583377 294.272322 
L 238.736623 286.370412 
L 243.88987 290.017447 
L 249.043117 290.017447 
L 254.196364 291.840965 
L 259.34961 294.272322 
L 264.502857 295.488 
L 269.656104 285.762573 
L 274.809351 289.409608 
L 279.962597 290.625286 
L 285.115844 291.233126 
L 290.269091 292.448804 
L 295.422338 295.488 
L 300.575584 285.762573 
L 305.728831 289.409608 
L 310.882078 290.625286 
L 316.035325 291.233126 
L 321.188571 292.448804 
L 326.341818 295.488 
L 331.495065 294.272322 
L 336.648312 286.370412 
L 341.801558 290.017447 
L 346.954805 290.017447 
L 352.108052 291.840965 
L 357.261299 294.272322 
L 362.414545 295.488 
L 367.567792 285.762573 
L 372.721039 289.409608 
L 377.874286 290.625286 
L 383.027532 291.233126 
L 388.180779 292.448804 
L 393.334026 295.488 
L 398.487273 294.272322 
" style="fill:none;stroke:#000000;stroke-linecap:square;stroke-width:1.5;"/>
   </g>
   <g id="line2d_18">
    <path clip-path="url(#p9b6e43fc69)" d="M 73.832727 272.99795 
L 78.985974 277.252824 
L 84.139221 277.860663 
L 89.292468 281.507698 
L 94.445714 282.115538 
L 99.598961 282.723377 
L 104.752208 273.605789 
L 109.905455 276.644985 
L 115.058701 277.252824 
L 120.211948 279.684181 
L 125.365195 282.115538 
L 130.518442 282.723377 
L 135.671688 273.605789 
L 140.824935 276.644985 
L 145.978182 277.252824 
L 151.131429 279.684181 
L 156.284675 282.115538 
L 161.437922 282.723377 
L 166.591169 282.723377 
L 171.744416 272.99795 
L 176.897662 277.252824 
L 182.050909 277.860663 
L 187.204156 281.507698 
L 192.357403 282.115538 
L 197.510649 282.723377 
L 202.663896 273.605789 
L 207.817143 276.644985 
L 212.97039 277.252824 
L 218.123636 279.684181 
L 223.276883 282.115538 
L 228.43013 282.723377 
L 233.583377 282.723377 
L 238.736623 272.99795 
L 243.88987 277.252824 
L 249.043117 277.860663 
L 254.196364 281.507698 
L 259.34961 282.115538 
L 264.502857 282.723377 
L 269.656104 273.605789 
L 274.809351 276.644985 
L 279.962597 277.252824 
L 285.115844 279.684181 
L 290.269091 282.115538 
L 295.422338 282.723377 
L 300.575584 273.605789 
L 305.728831 276.644985 
L 310.882078 277.252824 
L 316.035325 279.684181 
L 321.188571 282.115538 
L 326.341818 282.723377 
L 331.495065 282.723377 
L 336.648312 272.99795 
L 341.801558 277.252824 
L 346.954805 277.860663 
L 352.108052 281.507698 
L 357.261299 282.115538 
L 362.414545 282.723377 
L 367.567792 273.605789 
L 372.721039 276.644985 
L 377.874286 277.252824 
L 383.027532 279.684181 
L 388.180779 282.115538 
L 393.334026 282.723377 
L 398.487273 282.723377 
" style="fill:none;stroke:#000000;stroke-linecap:square;stroke-width:1.5;"/>
   </g>
   <g id="line2d_19">
    <path clip-path="url(#p9b6e43fc69)" d="M 73.832727 261.449005 
L 78.985974 263.272523 
L 84.139221 267.527397 
L 89.292468 269.350915 
L 94.445714 269.958754 
L 99.598961 269.958754 
L 104.752208 261.449005 
L 109.905455 263.880362 
L 115.058701 264.488201 
L 120.211948 269.350915 
L 125.365195 269.958754 
L 130.518442 269.958754 
L 135.671688 261.449005 
L 140.824935 263.880362 
L 145.978182 264.488201 
L 151.131429 269.350915 
L 156.284675 269.958754 
L 161.437922 269.958754 
L 166.591169 270.566593 
L 171.744416 261.449005 
L 176.897662 263.272523 
L 182.050909 267.527397 
L 187.204156 269.350915 
L 192.357403 269.958754 
L 197.510649 269.958754 
L 202.663896 261.449005 
L 207.817143 263.880362 
L 212.97039 264.488201 
L 218.123636 269.350915 
L 223.276883 269.958754 
L 228.43013 269.958754 
L 233.583377 270.566593 
L 238.736623 261.449005 
L 243.88987 263.272523 
L 249.043117 267.527397 
L 254.196364 269.350915 
L 259.34961 269.958754 
L 264.502857 269.958754 
L 269.656104 261.449005 
L 274.809351 263.880362 
L 279.962597 264.488201 
L 285.115844 269.350915 
L 290.269091 269.958754 
L 295.422338 269.958754 
L 300.575584 261.449005 
L 305.728831 263.880362 
L 310.882078 264.488201 
L 316.035325 269.350915 
L 321.188571 269.958754 
L 326.341818 269.958754 
L 331.495065 270.566593 
L 336.648312 261.449005 
L 341.801558 263.272523 
L 346.954805 267.527397 
L 352.108052 269.350915 
L 357.261299 269.958754 
L 362.414545 269.958754 
L 367.567792 261.449005 
L 372.721039 263.880362 
L 377.874286 264.488201 
L 383.027532 269.350915 
L 388.180779 269.958754 
L 393.334026 269.958754 
L 398.487273 270.566593 
" style="fill:none;stroke:#000000;stroke-linecap:square;stroke-width:1.5;"/>
   </g>
   <g id="line2d_20">
    <path clip-path="url(#p9b6e43fc69)" d="M 73.832727 247.468704 
L 78.985974 254.154935 
L 84.139221 255.370613 
L 89.292468 256.586291 
L 94.445714 257.80197 
L 99.598961 257.80197 
L 104.752208 247.468704 
L 109.905455 251.115739 
L 115.058701 255.370613 
L 120.211948 256.586291 
L 125.365195 257.80197 
L 130.518442 257.80197 
L 135.671688 247.468704 
L 140.824935 251.115739 
L 145.978182 255.370613 
L 151.131429 256.586291 
L 156.284675 257.80197 
L 161.437922 257.80197 
L 166.591169 257.80197 
L 171.744416 247.468704 
L 176.897662 254.154935 
L 182.050909 255.370613 
L 187.204156 256.586291 
L 192.357403 257.80197 
L 197.510649 257.80197 
L 202.663896 247.468704 
L 207.817143 251.115739 
L 212.97039 255.370613 
L 218.123636 256.586291 
L 223.276883 257.80197 
L 228.43013 257.80197 
L 233.583377 257.80197 
L 238.736623 247.468704 
L 243.88987 254.154935 
L 249.043117 255.370613 
L 254.196364 256.586291 
L 259.34961 257.80197 
L 264.502857 257.80197 
L 269.656104 247.468704 
L 274.809351 251.115739 
L 279.962597 255.370613 
L 285.115844 256.586291 
L 290.269091 257.80197 
L 295.422338 257.80197 
L 300.575584 247.468704 
L 305.728831 251.115739 
L 310.882078 255.370613 
L 316.035325 256.586291 
L 321.188571 257.80197 
L 326.341818 257.80197 
L 331.495065 257.80197 
L 336.648312 247.468704 
L 341.801558 254.154935 
L 346.954805 255.370613 
L 352.108052 256.586291 
L 357.261299 257.80197 
L 362.414545 257.80197 
L 367.567792 247.468704 
L 372.721039 251.115739 
L 377.874286 255.370613 
L 383.027532 256.586291 
L 388.180779 257.80197 
L 393.334026 257.80197 
L 398.487273 257.80197 
" style="fill:none;stroke:#000000;stroke-linecap:square;stroke-width:1.5;"/>
   </g>
   <g id="line2d_21">
    <path clip-path="url(#p9b6e43fc69)" d="M 73.832727 238.351116 
L 78.985974 240.782472 
L 84.139221 242.60599 
L 89.292468 244.429508 
L 94.445714 246.253025 
L 99.598961 243.821668 
L 104.752208 235.31192 
L 109.905455 240.782472 
L 115.058701 242.60599 
L 120.211948 244.429508 
L 125.365195 246.253025 
L 130.518442 243.821668 
L 135.671688 235.31192 
L 140.824935 240.782472 
L 145.978182 242.60599 
L 151.131429 244.429508 
L 156.284675 246.253025 
L 161.437922 243.821668 
L 166.591169 245.645186 
L 171.744416 238.351116 
L 176.897662 240.782472 
L 182.050909 242.60599 
L 187.204156 244.429508 
L 192.357403 246.253025 
L 197.510649 243.821668 
L 202.663896 235.31192 
L 207.817143 240.782472 
L 212.97039 242.60599 
L 218.123636 244.429508 
L 223.276883 246.253025 
L 228.43013 243.821668 
L 233.583377 245.645186 
L 238.736623 238.351116 
L 243.88987 240.782472 
L 249.043117 242.60599 
L 254.196364 244.429508 
L 259.34961 246.253025 
L 264.502857 243.821668 
L 269.656104 235.31192 
L 274.809351 240.782472 
L 279.962597 242.60599 
L 285.115844 244.429508 
L 290.269091 246.253025 
L 295.422338 243.821668 
L 300.575584 235.31192 
L 305.728831 240.782472 
L 310.882078 242.60599 
L 316.035325 244.429508 
L 321.188571 246.253025 
L 326.341818 243.821668 
L 331.495065 245.645186 
L 336.648312 238.351116 
L 341.801558 240.782472 
L 346.954805 242.60599 
L 352.108052 244.429508 
L 357.261299 246.253025 
L 362.414545 243.821668 
L 367.567792 235.31192 
L 372.721039 240.782472 
L 377.874286 242.60599 
L 383.027532 244.429508 
L 388.180779 246.253025 
L 393.334026 243.821668 
L 398.487273 245.645186 
" style="fill:none;stroke:#000000;stroke-linecap:square;stroke-width:1.5;"/>
   </g>
   <g id="line2d_22">
    <path clip-path="url(#p9b6e43fc69)" d="M 73.832727 225.586492 
L 78.985974 227.41001 
L 84.139221 230.449206 
L 89.292468 231.664884 
L 94.445714 232.880563 
L 99.598961 232.272724 
L 104.752208 225.586492 
L 109.905455 227.41001 
L 115.058701 230.449206 
L 120.211948 231.664884 
L 125.365195 232.880563 
L 130.518442 232.272724 
L 135.671688 225.586492 
L 140.824935 227.41001 
L 145.978182 230.449206 
L 151.131429 231.664884 
L 156.284675 232.880563 
L 161.437922 232.272724 
L 166.591169 236.527598 
L 171.744416 225.586492 
L 176.897662 227.41001 
L 182.050909 230.449206 
L 187.204156 231.664884 
L 192.357403 232.880563 
L 197.510649 232.272724 
L 202.663896 225.586492 
L 207.817143 227.41001 
L 212.97039 230.449206 
L 218.123636 231.664884 
L 223.276883 232.880563 
L 228.43013 232.272724 
L 233.583377 236.527598 
L 238.736623 225.586492 
L 243.88987 227.41001 
L 249.043117 230.449206 
L 254.196364 231.664884 
L 259.34961 232.880563 
L 264.502857 232.272724 
L 269.656104 225.586492 
L 274.809351 227.41001 
L 279.962597 230.449206 
L 285.115844 231.664884 
L 290.269091 232.880563 
L 295.422338 232.272724 
L 300.575584 225.586492 
L 305.728831 227.41001 
L 310.882078 230.449206 
L 316.035325 231.664884 
L 321.188571 232.880563 
L 326.341818 232.272724 
L 331.495065 236.527598 
L 336.648312 225.586492 
L 341.801558 227.41001 
L 346.954805 230.449206 
L 352.108052 231.664884 
L 357.261299 232.880563 
L 362.414545 232.272724 
L 367.567792 225.586492 
L 372.721039 227.41001 
L 377.874286 230.449206 
L 383.027532 231.664884 
L 388.180779 232.880563 
L 393.334026 232.272724 
L 398.487273 236.527598 
" style="fill:none;stroke:#000000;stroke-linecap:square;stroke-width:1.5;"/>
   </g>
   <g id="line2d_23">
    <path clip-path="url(#p9b6e43fc69)" d="M 73.832727 212.21403 
L 78.985974 213.429709 
L 84.139221 218.900261 
L 89.292468 218.900261 
L 94.445714 219.508101 
L 99.598961 224.370814 
L 104.752208 212.21403 
L 109.905455 213.429709 
L 115.058701 218.900261 
L 120.211948 218.900261 
L 125.365195 219.508101 
L 130.518442 224.370814 
L 135.671688 212.21403 
L 140.824935 213.429709 
L 145.978182 218.900261 
L 151.131429 218.900261 
L 156.284675 219.508101 
L 161.437922 224.370814 
L 166.591169 224.370814 
L 171.744416 212.21403 
L 176.897662 213.429709 
L 182.050909 218.900261 
L 187.204156 218.900261 
L 192.357403 219.508101 
L 197.510649 224.370814 
L 202.663896 212.21403 
L 207.817143 213.429709 
L 212.97039 218.900261 
L 218.123636 218.900261 
L 223.276883 219.508101 
L 228.43013 224.370814 
L 233.583377 224.370814 
L 238.736623 212.21403 
L 243.88987 213.429709 
L 249.043117 218.900261 
L 254.196364 218.900261 
L 259.34961 219.508101 
L 264.502857 224.370814 
L 269.656104 212.21403 
L 274.809351 213.429709 
L 279.962597 218.900261 
L 285.115844 218.900261 
L 290.269091 219.508101 
L 295.422338 224.370814 
L 300.575584 212.21403 
L 305.728831 213.429709 
L 310.882078 218.900261 
L 316.035325 218.900261 
L 321.188571 219.508101 
L 326.341818 224.370814 
L 331.495065 224.370814 
L 336.648312 212.21403 
L 341.801558 213.429709 
L 346.954805 218.900261 
L 352.108052 218.900261 
L 357.261299 219.508101 
L 362.414545 224.370814 
L 367.567792 212.21403 
L 372.721039 213.429709 
L 377.874286 218.900261 
L 383.027532 218.900261 
L 388.180779 219.508101 
L 393.334026 224.370814 
L 398.487273 224.370814 
" style="fill:none;stroke:#000000;stroke-linecap:square;stroke-width:1.5;"/>
   </g>
   <g id="line2d_24">
    <path clip-path="url(#p9b6e43fc69)" d="M 73.832727 198.233729 
L 78.985974 200.665085 
L 84.139221 205.527799 
L 89.292468 206.135638 
L 94.445714 211.606191 
L 99.598961 212.21403 
L 104.752208 198.233729 
L 109.905455 200.665085 
L 115.058701 205.527799 
L 120.211948 206.135638 
L 125.365195 211.606191 
L 130.518442 212.21403 
L 135.671688 198.233729 
L 140.824935 200.665085 
L 145.978182 205.527799 
L 151.131429 206.135638 
L 156.284675 211.606191 
L 161.437922 212.21403 
L 166.591169 212.21403 
L 171.744416 198.233729 
L 176.897662 200.665085 
L 182.050909 205.527799 
L 187.204156 206.135638 
L 192.357403 211.606191 
L 197.510649 212.21403 
L 202.663896 198.233729 
L 207.817143 200.665085 
L 212.97039 205.527799 
L 218.123636 206.135638 
L 223.276883 211.606191 
L 228.43013 212.21403 
L 233.583377 212.21403 
L 238.736623 198.233729 
L 243.88987 200.665085 
L 249.043117 205.527799 
L 254.196364 206.135638 
L 259.34961 211.606191 
L 264.502857 212.21403 
L 269.656104 198.233729 
L 274.809351 200.665085 
L 279.962597 205.527799 
L 285.115844 206.135638 
L 290.269091 211.606191 
L 295.422338 212.21403 
L 300.575584 198.233729 
L 305.728831 200.665085 
L 310.882078 205.527799 
L 316.035325 206.135638 
L 321.188571 211.606191 
L 326.341818 212.21403 
L 331.495065 212.21403 
L 336.648312 198.233729 
L 341.801558 200.665085 
L 346.954805 205.527799 
L 352.108052 206.135638 
L 357.261299 211.606191 
L 362.414545 212.21403 
L 367.567792 198.233729 
L 372.721039 200.665085 
L 377.874286 205.527799 
L 383.027532 206.135638 
L 388.180779 211.606191 
L 393.334026 212.21403 
L 398.487273 212.21403 
" style="fill:none;stroke:#000000;stroke-linecap:square;stroke-width:1.5;"/>
   </g>
   <g id="line2d_25">
    <path clip-path="url(#p9b6e43fc69)" d="M 73.832727 184.253427 
L 78.985974 186.684784 
L 84.139221 190.939658 
L 89.292468 199.449407 
L 94.445714 200.057246 
L 99.598961 200.057246 
L 104.752208 184.253427 
L 109.905455 186.684784 
L 115.058701 190.939658 
L 120.211948 199.449407 
L 125.365195 200.057246 
L 130.518442 200.057246 
L 135.671688 184.253427 
L 140.824935 186.684784 
L 145.978182 190.939658 
L 151.131429 199.449407 
L 156.284675 200.057246 
L 161.437922 200.057246 
L 166.591169 200.057246 
L 171.744416 184.253427 
L 176.897662 186.684784 
L 182.050909 190.939658 
L 187.204156 199.449407 
L 192.357403 200.057246 
L 197.510649 200.057246 
L 202.663896 184.253427 
L 207.817143 186.684784 
L 212.97039 190.939658 
L 218.123636 199.449407 
L 223.276883 200.057246 
L 228.43013 200.057246 
L 233.583377 200.057246 
L 238.736623 184.253427 
L 243.88987 186.684784 
L 249.043117 190.939658 
L 254.196364 199.449407 
L 259.34961 200.057246 
L 264.502857 200.057246 
L 269.656104 184.253427 
L 274.809351 186.684784 
L 279.962597 190.939658 
L 285.115844 199.449407 
L 290.269091 200.057246 
L 295.422338 200.057246 
L 300.575584 184.253427 
L 305.728831 186.684784 
L 310.882078 190.939658 
L 316.035325 199.449407 
L 321.188571 200.057246 
L 326.341818 200.057246 
L 331.495065 200.057246 
L 336.648312 184.253427 
L 341.801558 186.684784 
L 346.954805 190.939658 
L 352.108052 199.449407 
L 357.261299 200.057246 
L 362.414545 200.057246 
L 367.567792 184.253427 
L 372.721039 186.684784 
L 377.874286 190.939658 
L 383.027532 199.449407 
L 388.180779 200.057246 
L 393.334026 200.057246 
L 398.487273 200.057246 
" style="fill:none;stroke:#000000;stroke-linecap:square;stroke-width:1.5;"/>
   </g>
   <g id="line2d_26">
    <path clip-path="url(#p9b6e43fc69)" d="M 73.832727 167.23393 
L 78.985974 171.488804 
L 84.139221 186.076945 
L 89.292468 187.900462 
L 94.445714 187.900462 
L 99.598961 187.900462 
L 104.752208 167.23393 
L 109.905455 171.488804 
L 115.058701 186.076945 
L 120.211948 187.900462 
L 125.365195 187.900462 
L 130.518442 187.900462 
L 135.671688 167.23393 
L 140.824935 171.488804 
L 145.978182 186.076945 
L 151.131429 187.900462 
L 156.284675 187.900462 
L 161.437922 187.900462 
L 166.591169 187.900462 
L 171.744416 167.23393 
L 176.897662 171.488804 
L 182.050909 186.076945 
L 187.204156 187.900462 
L 192.357403 187.900462 
L 197.510649 187.900462 
L 202.663896 167.23393 
L 207.817143 171.488804 
L 212.97039 186.076945 
L 218.123636 187.900462 
L 223.276883 187.900462 
L 228.43013 187.900462 
L 233.583377 187.900462 
L 238.736623 167.23393 
L 243.88987 171.488804 
L 249.043117 186.076945 
L 254.196364 187.900462 
L 259.34961 187.900462 
L 264.502857 187.900462 
L 269.656104 167.23393 
L 274.809351 171.488804 
L 279.962597 186.076945 
L 285.115844 187.900462 
L 290.269091 187.900462 
L 295.422338 187.900462 
L 300.575584 167.23393 
L 305.728831 171.488804 
L 310.882078 186.076945 
L 316.035325 187.900462 
L 321.188571 187.900462 
L 326.341818 187.900462 
L 331.495065 187.900462 
L 336.648312 167.23393 
L 341.801558 171.488804 
L 346.954805 186.076945 
L 352.108052 187.900462 
L 357.261299 187.900462 
L 362.414545 187.900462 
L 367.567792 167.23393 
L 372.721039 171.488804 
L 377.874286 186.076945 
L 383.027532 187.900462 
L 388.180779 187.900462 
L 393.334026 187.900462 
L 398.487273 187.900462 
" style="fill:none;stroke:#000000;stroke-linecap:square;stroke-width:1.5;"/>
   </g>
   <g id="line2d_27">
    <path clip-path="url(#p9b6e43fc69)" d="M 73.832727 142.312523 
L 78.985974 170.273126 
L 84.139221 175.743678 
L 89.292468 175.743678 
L 94.445714 175.743678 
L 99.598961 175.743678 
L 104.752208 142.312523 
L 109.905455 170.273126 
L 115.058701 175.743678 
L 120.211948 175.743678 
L 125.365195 175.743678 
L 130.518442 175.743678 
L 135.671688 142.312523 
L 140.824935 170.273126 
L 145.978182 175.743678 
L 151.131429 175.743678 
L 156.284675 175.743678 
L 161.437922 175.743678 
L 166.591169 175.743678 
L 171.744416 142.312523 
L 176.897662 170.273126 
L 182.050909 175.743678 
L 187.204156 175.743678 
L 192.357403 175.743678 
L 197.510649 175.743678 
L 202.663896 142.312523 
L 207.817143 170.273126 
L 212.97039 175.743678 
L 218.123636 175.743678 
L 223.276883 175.743678 
L 228.43013 175.743678 
L 233.583377 175.743678 
L 238.736623 142.312523 
L 243.88987 170.273126 
L 249.043117 175.743678 
L 254.196364 175.743678 
L 259.34961 175.743678 
L 264.502857 175.743678 
L 269.656104 142.312523 
L 274.809351 170.273126 
L 279.962597 175.743678 
L 285.115844 175.743678 
L 290.269091 175.743678 
L 295.422338 175.743678 
L 300.575584 142.312523 
L 305.728831 170.273126 
L 310.882078 175.743678 
L 316.035325 175.743678 
L 321.188571 175.743678 
L 326.341818 175.743678 
L 331.495065 175.743678 
L 336.648312 142.312523 
L 341.801558 170.273126 
L 346.954805 175.743678 
L 352.108052 175.743678 
L 357.261299 175.743678 
L 362.414545 175.743678 
L 367.567792 142.312523 
L 372.721039 170.273126 
L 377.874286 175.743678 
L 383.027532 175.743678 
L 388.180779 175.743678 
L 393.334026 175.743678 
L 398.487273 175.743678 
" style="fill:none;stroke:#000000;stroke-linecap:square;stroke-width:1.5;"/>
   </g>
   <g id="line2d_28">
    <path clip-path="url(#p9b6e43fc69)" d="M 73.832727 131.979256 
L 78.985974 163.586894 
L 84.139221 163.586894 
L 89.292468 163.586894 
L 94.445714 163.586894 
L 99.598961 156.292824 
L 104.752208 131.979256 
L 109.905455 163.586894 
L 115.058701 163.586894 
L 120.211948 163.586894 
L 125.365195 163.586894 
L 130.518442 156.292824 
L 135.671688 131.979256 
L 140.824935 163.586894 
L 145.978182 163.586894 
L 151.131429 163.586894 
L 156.284675 163.586894 
L 161.437922 163.586894 
L 166.591169 156.292824 
L 171.744416 131.979256 
L 176.897662 163.586894 
L 182.050909 163.586894 
L 187.204156 163.586894 
L 192.357403 163.586894 
L 197.510649 156.292824 
L 202.663896 131.979256 
L 207.817143 163.586894 
L 212.97039 163.586894 
L 218.123636 163.586894 
L 223.276883 163.586894 
L 228.43013 163.586894 
L 233.583377 156.292824 
L 238.736623 131.979256 
L 243.88987 163.586894 
L 249.043117 163.586894 
L 254.196364 163.586894 
L 259.34961 163.586894 
L 264.502857 156.292824 
L 269.656104 131.979256 
L 274.809351 163.586894 
L 279.962597 163.586894 
L 285.115844 163.586894 
L 290.269091 163.586894 
L 295.422338 156.292824 
L 300.575584 131.979256 
L 305.728831 163.586894 
L 310.882078 163.586894 
L 316.035325 163.586894 
L 321.188571 163.586894 
L 326.341818 163.586894 
L 331.495065 156.292824 
L 336.648312 131.979256 
L 341.801558 163.586894 
L 346.954805 163.586894 
L 352.108052 163.586894 
L 357.261299 163.586894 
L 362.414545 156.292824 
L 367.567792 131.979256 
L 372.721039 163.586894 
L 377.874286 163.586894 
L 383.027532 163.586894 
L 388.180779 163.586894 
L 393.334026 163.586894 
L 398.487273 156.292824 
" style="fill:none;stroke:#000000;stroke-linecap:square;stroke-width:1.5;"/>
   </g>
   <g id="line2d_29">
    <path clip-path="url(#p9b6e43fc69)" d="M 73.832727 129.547899 
L 78.985974 151.430111 
L 84.139221 151.430111 
L 89.292468 151.430111 
L 94.445714 148.998754 
L 99.598961 136.84197 
L 104.752208 129.547899 
L 109.905455 151.430111 
L 115.058701 151.430111 
L 120.211948 151.430111 
L 125.365195 148.998754 
L 130.518442 136.84197 
L 135.671688 129.547899 
L 140.824935 151.430111 
L 145.978182 151.430111 
L 151.131429 151.430111 
L 156.284675 151.430111 
L 161.437922 148.998754 
L 166.591169 136.84197 
L 171.744416 129.547899 
L 176.897662 151.430111 
L 182.050909 151.430111 
L 187.204156 151.430111 
L 192.357403 148.998754 
L 197.510649 136.84197 
L 202.663896 129.547899 
L 207.817143 151.430111 
L 212.97039 151.430111 
L 218.123636 151.430111 
L 223.276883 151.430111 
L 228.43013 148.998754 
L 233.583377 136.84197 
L 238.736623 129.547899 
L 243.88987 151.430111 
L 249.043117 151.430111 
L 254.196364 151.430111 
L 259.34961 148.998754 
L 264.502857 136.84197 
L 269.656104 129.547899 
L 274.809351 151.430111 
L 279.962597 151.430111 
L 285.115844 151.430111 
L 290.269091 148.998754 
L 295.422338 136.84197 
L 300.575584 129.547899 
L 305.728831 151.430111 
L 310.882078 151.430111 
L 316.035325 151.430111 
L 321.188571 151.430111 
L 326.341818 148.998754 
L 331.495065 136.84197 
L 336.648312 129.547899 
L 341.801558 151.430111 
L 346.954805 151.430111 
L 352.108052 151.430111 
L 357.261299 148.998754 
L 362.414545 136.84197 
L 367.567792 129.547899 
L 372.721039 151.430111 
L 377.874286 151.430111 
L 383.027532 151.430111 
L 388.180779 151.430111 
L 393.334026 148.998754 
L 398.487273 136.84197 
" style="fill:none;stroke:#000000;stroke-linecap:square;stroke-width:1.5;"/>
   </g>
   <g id="line2d_30">
    <path clip-path="url(#p9b6e43fc69)" d="M 73.832727 123.469508 
L 78.985974 139.273327 
L 84.139221 139.273327 
L 89.292468 137.449809 
L 94.445714 132.587095 
L 99.598961 124.685186 
L 104.752208 123.469508 
L 109.905455 139.273327 
L 115.058701 139.273327 
L 120.211948 137.449809 
L 125.365195 132.587095 
L 130.518442 124.685186 
L 135.671688 123.469508 
L 140.824935 139.273327 
L 145.978182 139.273327 
L 151.131429 139.273327 
L 156.284675 137.449809 
L 161.437922 132.587095 
L 166.591169 124.685186 
L 171.744416 123.469508 
L 176.897662 139.273327 
L 182.050909 139.273327 
L 187.204156 137.449809 
L 192.357403 132.587095 
L 197.510649 124.685186 
L 202.663896 123.469508 
L 207.817143 139.273327 
L 212.97039 139.273327 
L 218.123636 139.273327 
L 223.276883 137.449809 
L 228.43013 132.587095 
L 233.583377 124.685186 
L 238.736623 123.469508 
L 243.88987 139.273327 
L 249.043117 139.273327 
L 254.196364 137.449809 
L 259.34961 132.587095 
L 264.502857 124.685186 
L 269.656104 123.469508 
L 274.809351 139.273327 
L 279.962597 139.273327 
L 285.115844 137.449809 
L 290.269091 132.587095 
L 295.422338 124.685186 
L 300.575584 123.469508 
L 305.728831 139.273327 
L 310.882078 139.273327 
L 316.035325 139.273327 
L 321.188571 137.449809 
L 326.341818 132.587095 
L 331.495065 124.685186 
L 336.648312 123.469508 
L 341.801558 139.273327 
L 346.954805 139.273327 
L 352.108052 137.449809 
L 357.261299 132.587095 
L 362.414545 124.685186 
L 367.567792 123.469508 
L 372.721039 139.273327 
L 377.874286 139.273327 
L 383.027532 139.273327 
L 388.180779 137.449809 
L 393.334026 132.587095 
L 398.487273 124.685186 
" style="fill:none;stroke:#000000;stroke-linecap:square;stroke-width:1.5;"/>
   </g>
   <g id="line2d_31">
    <path clip-path="url(#p9b6e43fc69)" d="M 73.832727 112.528402 
L 78.985974 127.116543 
L 84.139221 125.293025 
L 89.292468 122.861668 
L 94.445714 119.214633 
L 99.598961 116.783276 
L 104.752208 112.528402 
L 109.905455 127.116543 
L 115.058701 125.293025 
L 120.211948 122.861668 
L 125.365195 119.214633 
L 130.518442 116.783276 
L 135.671688 112.528402 
L 140.824935 127.116543 
L 145.978182 127.116543 
L 151.131429 125.293025 
L 156.284675 122.861668 
L 161.437922 119.214633 
L 166.591169 116.783276 
L 171.744416 112.528402 
L 176.897662 127.116543 
L 182.050909 125.293025 
L 187.204156 122.861668 
L 192.357403 119.214633 
L 197.510649 116.783276 
L 202.663896 112.528402 
L 207.817143 127.116543 
L 212.97039 127.116543 
L 218.123636 125.293025 
L 223.276883 122.861668 
L 228.43013 119.214633 
L 233.583377 116.783276 
L 238.736623 112.528402 
L 243.88987 127.116543 
L 249.043117 125.293025 
L 254.196364 122.861668 
L 259.34961 119.214633 
L 264.502857 116.783276 
L 269.656104 112.528402 
L 274.809351 127.116543 
L 279.962597 125.293025 
L 285.115844 122.861668 
L 290.269091 119.214633 
L 295.422338 116.783276 
L 300.575584 112.528402 
L 305.728831 127.116543 
L 310.882078 127.116543 
L 316.035325 125.293025 
L 321.188571 122.861668 
L 326.341818 119.214633 
L 331.495065 116.783276 
L 336.648312 112.528402 
L 341.801558 127.116543 
L 346.954805 125.293025 
L 352.108052 122.861668 
L 357.261299 119.214633 
L 362.414545 116.783276 
L 367.567792 112.528402 
L 372.721039 127.116543 
L 377.874286 127.116543 
L 383.027532 125.293025 
L 388.180779 122.861668 
L 393.334026 119.214633 
L 398.487273 116.783276 
" style="fill:none;stroke:#000000;stroke-linecap:square;stroke-width:1.5;"/>
   </g>
   <g id="line2d_32">
    <path clip-path="url(#p9b6e43fc69)" d="M 73.832727 101.587296 
L 78.985974 113.136241 
L 84.139221 111.920563 
L 89.292468 110.704884 
L 94.445714 107.057849 
L 99.598961 106.45001 
L 104.752208 101.587296 
L 109.905455 113.136241 
L 115.058701 111.920563 
L 120.211948 110.704884 
L 125.365195 107.057849 
L 130.518442 106.45001 
L 135.671688 101.587296 
L 140.824935 114.959759 
L 145.978182 113.136241 
L 151.131429 111.920563 
L 156.284675 110.704884 
L 161.437922 107.057849 
L 166.591169 106.45001 
L 171.744416 101.587296 
L 176.897662 113.136241 
L 182.050909 111.920563 
L 187.204156 110.704884 
L 192.357403 107.057849 
L 197.510649 106.45001 
L 202.663896 101.587296 
L 207.817143 114.959759 
L 212.97039 113.136241 
L 218.123636 111.920563 
L 223.276883 110.704884 
L 228.43013 107.057849 
L 233.583377 106.45001 
L 238.736623 101.587296 
L 243.88987 113.136241 
L 249.043117 111.920563 
L 254.196364 110.704884 
L 259.34961 107.057849 
L 264.502857 106.45001 
L 269.656104 101.587296 
L 274.809351 113.136241 
L 279.962597 111.920563 
L 285.115844 110.704884 
L 290.269091 107.057849 
L 295.422338 106.45001 
L 300.575584 101.587296 
L 305.728831 114.959759 
L 310.882078 113.136241 
L 316.035325 111.920563 
L 321.188571 110.704884 
L 326.341818 107.057849 
L 331.495065 106.45001 
L 336.648312 101.587296 
L 341.801558 113.136241 
L 346.954805 111.920563 
L 352.108052 110.704884 
L 357.261299 107.057849 
L 362.414545 106.45001 
L 367.567792 101.587296 
L 372.721039 114.959759 
L 377.874286 113.136241 
L 383.027532 111.920563 
L 388.180779 110.704884 
L 393.334026 107.057849 
L 398.487273 106.45001 
" style="fill:none;stroke:#000000;stroke-linecap:square;stroke-width:1.5;"/>
   </g>
   <g id="line2d_33">
    <path clip-path="url(#p9b6e43fc69)" d="M 73.832727 88.822673 
L 78.985974 100.371618 
L 84.139221 99.763779 
L 89.292468 97.332422 
L 94.445714 96.116744 
L 99.598961 95.508905 
L 104.752208 88.822673 
L 109.905455 100.371618 
L 115.058701 99.763779 
L 120.211948 97.332422 
L 125.365195 96.116744 
L 130.518442 95.508905 
L 135.671688 90.646191 
L 140.824935 100.979457 
L 145.978182 100.371618 
L 151.131429 99.763779 
L 156.284675 97.332422 
L 161.437922 96.116744 
L 166.591169 95.508905 
L 171.744416 88.822673 
L 176.897662 100.371618 
L 182.050909 99.763779 
L 187.204156 97.332422 
L 192.357403 96.116744 
L 197.510649 95.508905 
L 202.663896 90.646191 
L 207.817143 100.979457 
L 212.97039 100.371618 
L 218.123636 99.763779 
L 223.276883 97.332422 
L 228.43013 96.116744 
L 233.583377 95.508905 
L 238.736623 88.822673 
L 243.88987 100.371618 
L 249.043117 99.763779 
L 254.196364 97.332422 
L 259.34961 96.116744 
L 264.502857 95.508905 
L 269.656104 88.822673 
L 274.809351 100.371618 
L 279.962597 99.763779 
L 285.115844 97.332422 
L 290.269091 96.116744 
L 295.422338 95.508905 
L 300.575584 90.646191 
L 305.728831 100.979457 
L 310.882078 100.371618 
L 316.035325 99.763779 
L 321.188571 97.332422 
L 326.341818 96.116744 
L 331.495065 95.508905 
L 336.648312 88.822673 
L 341.801558 100.371618 
L 346.954805 99.763779 
L 352.108052 97.332422 
L 357.261299 96.116744 
L 362.414545 95.508905 
L 367.567792 90.646191 
L 372.721039 100.979457 
L 377.874286 100.371618 
L 383.027532 99.763779 
L 388.180779 97.332422 
L 393.334026 96.116744 
L 398.487273 95.508905 
" style="fill:none;stroke:#000000;stroke-linecap:square;stroke-width:1.5;"/>
   </g>
   <g id="line2d_34">
    <path clip-path="url(#p9b6e43fc69)" d="M 73.832727 76.665889 
L 78.985974 88.822673 
L 84.139221 86.391317 
L 89.292468 85.783477 
L 94.445714 85.783477 
L 99.598961 81.528603 
L 104.752208 76.665889 
L 109.905455 88.822673 
L 115.058701 86.391317 
L 120.211948 85.783477 
L 125.365195 85.783477 
L 130.518442 82.744281 
L 135.671688 78.489407 
L 140.824935 87.606995 
L 145.978182 88.822673 
L 151.131429 86.391317 
L 156.284675 85.783477 
L 161.437922 85.783477 
L 166.591169 81.528603 
L 171.744416 76.665889 
L 176.897662 88.822673 
L 182.050909 86.391317 
L 187.204156 85.783477 
L 192.357403 85.783477 
L 197.510649 82.744281 
L 202.663896 78.489407 
L 207.817143 87.606995 
L 212.97039 88.822673 
L 218.123636 86.391317 
L 223.276883 85.783477 
L 228.43013 85.783477 
L 233.583377 81.528603 
L 238.736623 76.665889 
L 243.88987 88.822673 
L 249.043117 86.391317 
L 254.196364 85.783477 
L 259.34961 85.783477 
L 264.502857 81.528603 
L 269.656104 76.665889 
L 274.809351 88.822673 
L 279.962597 86.391317 
L 285.115844 85.783477 
L 290.269091 85.783477 
L 295.422338 82.744281 
L 300.575584 78.489407 
L 305.728831 87.606995 
L 310.882078 88.822673 
L 316.035325 86.391317 
L 321.188571 85.783477 
L 326.341818 85.783477 
L 331.495065 81.528603 
L 336.648312 76.665889 
L 341.801558 88.822673 
L 346.954805 86.391317 
L 352.108052 85.783477 
L 357.261299 85.783477 
L 362.414545 82.744281 
L 367.567792 78.489407 
L 372.721039 87.606995 
L 377.874286 88.822673 
L 383.027532 86.391317 
L 388.180779 85.783477 
L 393.334026 85.783477 
L 398.487273 81.528603 
" style="fill:none;stroke:#000000;stroke-linecap:square;stroke-width:1.5;"/>
   </g>
   <g id="line2d_35">
    <path clip-path="url(#p9b6e43fc69)" d="M 73.832727 65.724784 
L 78.985974 76.05805 
L 84.139221 74.842372 
L 89.292468 73.018854 
L 94.445714 74.842372 
L 99.598961 67.548302 
L 104.752208 65.724784 
L 109.905455 76.05805 
L 115.058701 74.842372 
L 120.211948 73.018854 
L 125.365195 75.450211 
L 130.518442 68.76398 
L 135.671688 67.548302 
L 140.824935 74.842372 
L 145.978182 76.05805 
L 151.131429 74.842372 
L 156.284675 73.018854 
L 161.437922 74.842372 
L 166.591169 67.548302 
L 171.744416 65.724784 
L 176.897662 76.05805 
L 182.050909 74.842372 
L 187.204156 73.018854 
L 192.357403 75.450211 
L 197.510649 68.76398 
L 202.663896 67.548302 
L 207.817143 74.842372 
L 212.97039 76.05805 
L 218.123636 74.842372 
L 223.276883 73.018854 
L 228.43013 74.842372 
L 233.583377 67.548302 
L 238.736623 65.724784 
L 243.88987 76.05805 
L 249.043117 74.842372 
L 254.196364 73.018854 
L 259.34961 74.842372 
L 264.502857 67.548302 
L 269.656104 65.724784 
L 274.809351 76.05805 
L 279.962597 74.842372 
L 285.115844 73.018854 
L 290.269091 75.450211 
L 295.422338 68.76398 
L 300.575584 67.548302 
L 305.728831 74.842372 
L 310.882078 76.05805 
L 316.035325 74.842372 
L 321.188571 73.018854 
L 326.341818 74.842372 
L 331.495065 67.548302 
L 336.648312 65.724784 
L 341.801558 76.05805 
L 346.954805 74.842372 
L 352.108052 73.018854 
L 357.261299 75.450211 
L 362.414545 68.76398 
L 367.567792 67.548302 
L 372.721039 74.842372 
L 377.874286 76.05805 
L 383.027532 74.842372 
L 388.180779 73.018854 
L 393.334026 74.842372 
L 398.487273 67.548302 
" style="fill:none;stroke:#000000;stroke-linecap:square;stroke-width:1.5;"/>
   </g>
   <g id="line2d_36">
    <path clip-path="url(#p9b6e43fc69)" d="M 73.832727 53.568 
L 78.985974 63.901266 
L 84.139221 62.077749 
L 89.292468 62.077749 
L 94.445714 61.46991 
L 99.598961 55.999357 
L 104.752208 53.568 
L 109.905455 63.901266 
L 115.058701 62.077749 
L 120.211948 62.685588 
L 125.365195 62.077749 
L 130.518442 57.215035 
L 135.671688 54.783678 
L 140.824935 62.685588 
L 145.978182 63.901266 
L 151.131429 62.077749 
L 156.284675 62.077749 
L 161.437922 61.46991 
L 166.591169 55.999357 
L 171.744416 53.568 
L 176.897662 63.901266 
L 182.050909 62.077749 
L 187.204156 62.685588 
L 192.357403 62.077749 
L 197.510649 57.215035 
L 202.663896 54.783678 
L 207.817143 62.685588 
L 212.97039 63.901266 
L 218.123636 62.077749 
L 223.276883 62.077749 
L 228.43013 61.46991 
L 233.583377 55.999357 
L 238.736623 53.568 
L 243.88987 63.901266 
L 249.043117 62.077749 
L 254.196364 62.077749 
L 259.34961 61.46991 
L 264.502857 55.999357 
L 269.656104 53.568 
L 274.809351 63.901266 
L 279.962597 62.077749 
L 285.115844 62.685588 
L 290.269091 62.077749 
L 295.422338 57.215035 
L 300.575584 54.783678 
L 305.728831 62.685588 
L 310.882078 63.901266 
L 316.035325 62.077749 
L 321.188571 62.077749 
L 326.341818 61.46991 
L 331.495065 55.999357 
L 336.648312 53.568 
L 341.801558 63.901266 
L 346.954805 62.077749 
L 352.108052 62.685588 
L 357.261299 62.077749 
L 362.414545 57.215035 
L 367.567792 54.783678 
L 372.721039 62.685588 
L 377.874286 63.901266 
L 383.027532 62.077749 
L 388.180779 62.077749 
L 393.334026 61.46991 
L 398.487273 55.999357 
" style="fill:none;stroke:#000000;stroke-linecap:square;stroke-width:1.5;"/>
   </g>
   <g id="patch_3">
    <path d="M 57.6 307.584 
L 57.6 41.472 
" style="fill:none;stroke:#000000;stroke-linecap:square;stroke-linejoin:miter;stroke-width:0.8;"/>
   </g>
   <g id="patch_4">
    <path d="M 414.72 307.584 
L 414.72 41.472 
" style="fill:none;stroke:#000000;stroke-linecap:square;stroke-linejoin:miter;stroke-width:0.8;"/>
   </g>
   <g id="patch_5">
    <path d="M 57.6 307.584 
L 414.72 307.584 
" style="fill:none;stroke:#000000;stroke-linecap:square;stroke-linejoin:miter;stroke-width:0.8;"/>
   </g>
   <g id="patch_6">
    <path d="M 57.6 41.472 
L 414.72 41.472 
" style="fill:none;stroke:#000000;stroke-linecap:square;stroke-linejoin:miter;stroke-width:0.8;"/>
   </g>
  </g>
 </g>
 <defs>
  <clipPath id="p9b6e43fc69">
   <rect height="266.112" width="357.12" x="57.6" y="41.472"/>
  </clipPath>
 </defs>
</svg>
